<svg xmlns="http://www.w3.org/2000/svg" xmlns:svg="http://www.w3.org/2000/svg" id="svg2" width="100" height="50" version="1.0"><metadata id="metadata7"/><g id="layer1"><path style="fill:none;stroke:#000;stroke-width:2;stroke-linecap:butt;stroke-linejoin:miter;stroke-opacity:1" id="path3059" d="m 70,25 c 20,0 25,0 25,0"/><path style="fill:none;stroke:#000;stroke-width:1.99999988;stroke-linecap:butt;stroke-linejoin:miter;stroke-opacity:1" id="path3061" d="M 30.385717,15 L 4.9999998,15"/><path style="fill:none;stroke:#000;stroke-width:1.99999976;stroke-linecap:butt;stroke-linejoin:miter;stroke-opacity:1" id="path3944" d="M 31.362091,35 L 4.9999998,35"/><g id="g2560" transform="translate(26.5,-39.5)"><path id="path3516" d="M -2.25,81.500005 C -3.847374,84.144405 -4.5,84.500005 -4.5,84.500005 L -8.15625,84.500005 L -6.15625,82.062505 C -6.15625,82.062505 -0.5,75.062451 -0.5,64.5 C -0.5,53.937549 -6.15625,46.9375 -6.15625,46.9375 L -8.15625,44.5 L -4.5,44.5 C -3.71875,45.4375 -3.078125,46.15625 -2.28125,47.5 C -0.408531,50.599815 2.5,56.526646 2.5,64.5 C 2.5,72.45065 -0.396697,78.379425 -2.25,81.500005 z" style="fill:#000;fill-opacity:1;fill-rule:evenodd;stroke:none;stroke-width:3;stroke-linecap:butt;stroke-linejoin:miter;stroke-opacity:1"/><path style="fill:#000;fill-opacity:1;fill-rule:evenodd;stroke:none;stroke-width:3;stroke-linecap:butt;stroke-linejoin:miter;stroke-opacity:1" id="path4973" d="M -2.40625,44.5 L -0.40625,46.9375 C -0.40625,46.9375 5.25,53.937549 5.25,64.5 C 5.25,75.062451 -0.40625,82.0625 -0.40625,82.0625 L -2.40625,84.5 L 0.75,84.5 L 14.75,84.5 C 17.158076,84.500001 22.439699,84.524514 28.375,82.09375 C 34.310301,79.662986 40.911536,74.750484 46.0625,65.21875 L 44.75,64.5 L 46.0625,63.78125 C 35.759387,44.71559 19.506574,44.5 14.75,44.5 L 0.75,44.5 L -2.40625,44.5 z M 3.46875,47.5 L 14.75,47.5 C 19.434173,47.5 33.03685,47.369793 42.71875,64.5 C 37.951964,72.929075 32.197469,77.18391 27,79.3125 C 21.639339,81.507924 17.158075,81.500001 14.75,81.5 L 3.5,81.5 C 5.3735884,78.391566 8.25,72.45065 8.25,64.5 C 8.25,56.526646 5.3414686,50.599815 3.46875,47.5 z"/></g><text style="font-size:47.86081314px;font-style:normal;font-weight:400;line-height:125%;letter-spacing:0;word-spacing:0;fill:#000;fill-opacity:1;stroke:none;font-family:Sans" id="text2996" x="5.378" y="12.229" transform="scale(0.94941398,1.0532813)" xml:space="preserve"><tspan id="tspan2998" x="5.378" y="12.229" style="font-size:10px">A</tspan></text><text style="font-size:47.86081314px;font-style:normal;font-weight:400;line-height:125%;letter-spacing:0;word-spacing:0;fill:#000;fill-opacity:1;stroke:none;font-family:Sans" id="text2996-3" x="4.778" y="42.724" transform="scale(0.94941398,1.0532813)" xml:space="preserve"><tspan id="tspan2998-3" x="4.778" y="42.724" style="font-size:10px">B</tspan></text><text style="font-size:47.86081314px;font-style:normal;font-weight:400;line-height:125%;letter-spacing:0;word-spacing:0;fill:#000;fill-opacity:1;stroke:none;font-family:Sans" id="text2996-1" x="92.752" y="21.663" transform="scale(0.94941398,1.0532813)" xml:space="preserve"><tspan id="tspan2998-32" x="92.752" y="21.663" style="font-size:10px">O</tspan></text></g></svg>