<svg xmlns="http://www.w3.org/2000/svg" width="100%" height="100%" version="1.1" viewBox="0 0 81.585 67.617"><g stroke="#000" stroke-miterlimit="4" stroke-width="2.6"><path fill="none" stroke-width="0" d="m9.8205,986.05c7.258,12.571,9.044,22.083,9.044,32.486,0,12.555-3.1508,22.307-9.044,32.514l-8.52,0.1c5.8932-10.207,9.044-19.959,9.044-32.514,0-10.403-1.786-19.915-9.044-32.486z" transform="translate(-4.7683716e-8,-984.74556)"/><path fill="#FFF" stroke-linecap="butt" stroke-linejoin="miter" d="m9.8205,986.05c7.258,12.571,9.044,22.083,9.044,32.486,0,12.555-3.1508,22.307-9.044,32.514,22.786,0,57.7-10.868,70.465-31.835-12.892-19.49-48.044-33.15-70.464-33.15z" transform="translate(-4.7683716e-8,-984.74556)"/><path fill="none" stroke-linecap="round" stroke-linejoin="round" d="m1.3,986.06c7.258,12.571,9.044,22.083,9.044,32.486,0,12.555-3.1508,22.307-9.044,32.514" transform="translate(-4.7683716e-8,-984.74556)"/></g></svg>